<svg xmlns="http://www.w3.org/2000/svg" viewBox="0 0 500 500"><g id="freepik--background-complete--inject-3"><rect y="382.4" width="500" height="0.25" style="fill:#ebebeb"></rect><rect x="428.22" y="398.49" width="21.68" height="0.25" style="fill:#ebebeb"></rect><rect x="310.56" y="393.31" width="34.11" height="0.25" style="fill:#ebebeb"></rect><rect x="396.59" y="389.21" width="44.53" height="0.25" style="fill:#ebebeb"></rect><rect x="161.88" y="394.25" width="11.14" height="0.25" style="fill:#ebebeb"></rect><rect x="114.58" y="394.25" width="38.39" height="0.25" style="fill:#ebebeb"></rect><rect x="66.31" y="390.03" width="27.7" height="0.25" style="fill:#ebebeb"></rect><path d="M237,337.8H43.91a5.71,5.71,0,0,1-5.7-5.71V60.66A5.71,5.71,0,0,1,43.91,55H237a5.71,5.71,0,0,1,5.71,5.71V332.09A5.71,5.71,0,0,1,237,337.8ZM43.91,55.2a5.46,5.46,0,0,0-5.45,5.46V332.09a5.46,5.46,0,0,0,5.45,5.46H237a5.47,5.47,0,0,0,5.46-5.46V60.66A5.47,5.47,0,0,0,237,55.2Z" style="fill:#ebebeb"></path><path d="M453.31,337.8H260.21a5.72,5.72,0,0,1-5.71-5.71V60.66A5.72,5.72,0,0,1,260.21,55h193.1A5.71,5.71,0,0,1,459,60.66V332.09A5.71,5.71,0,0,1,453.31,337.8ZM260.21,55.2a5.47,5.47,0,0,0-5.46,5.46V332.09a5.47,5.47,0,0,0,5.46,5.46h193.1a5.47,5.47,0,0,0,5.46-5.46V60.66a5.47,5.47,0,0,0-5.46-5.46Z" style="fill:#ebebeb"></path><path d="M216.07,200.88l.45-13.14-8.06-2.64a79.2,79.2,0,0,0-2.16-13.2l6.84-5-4.64-12.34-8.46.68a78.17,78.17,0,0,0-7-11.35l4.38-7.31-9-9.61-7.56,3.87A81.78,81.78,0,0,0,170,123l1.22-8.4-12-5.44-5.5,6.44a80.66,80.66,0,0,0-13-3l-2-8.23-13.18-.45-2.6,8.07a80.48,80.48,0,0,0-13.19,2.15l-5.08-6.8-12.34,4.61.68,8.46a80.13,80.13,0,0,0-11.35,7.07L74.3,123l-9.65,9,3.87,7.6a77.61,77.61,0,0,0-7.8,10.84l-8.39-1.26-5.48,12,6.48,5.49a78.54,78.54,0,0,0-3,13L42,181.76l-.45,13.14,8.1,2.64a77.4,77.4,0,0,0,2.15,13.19l-6.84,5,4.65,12.35,8.46-.68a77,77,0,0,0,7,11.35l-4.39,7.31,9,9.61,7.56-3.87a80.74,80.74,0,0,0,10.84,7.83l-1.26,8.39,12,5.45,5.53-6.44a81.73,81.73,0,0,0,13,3.05l2,8.23,13.18.45,2.6-8.07a81.5,81.5,0,0,0,13.2-2.15l5,6.8,12.34-4.61-.64-8.46a83.44,83.44,0,0,0,11.35-7.07l7.27,4.38,9.65-9-3.87-7.6a77.38,77.38,0,0,0,7.8-10.84l8.39,1.26,5.48-12-6.48-5.5a77.26,77.26,0,0,0,3.05-13Zm-88.79,42.57a52.16,52.16,0,1,1,53.89-50.33A52.15,52.15,0,0,1,127.28,243.45Z" style="fill:#ebebeb"></path><path d="M441,157.42l3.31-3.09L443,151.72a27.6,27.6,0,0,0,2.69-3.74l2.9.43,1.87-4.14-2.22-1.89a26.84,26.84,0,0,0,1.05-4.49l2.85-.71.14-4.54-2.78-.9a28.32,28.32,0,0,0-.74-4.56l2.35-1.75-1.6-4.25-2.91.23a28.25,28.25,0,0,0-2.43-3.92l1.51-2.5-3.11-3.32-2.6,1.33a28.24,28.24,0,0,0-3.74-2.69l.42-2.9-4.13-1.89-1.9,2.23a27.83,27.83,0,0,0-4.49-1l-.71-2.84-4.54-.17-.91,2.8a27,27,0,0,0-4.54.74l-1.74-2.35-4.26,1.59.24,2.92a26.58,26.58,0,0,0-3.92,2.43l-2.52-1.51-3.32,3.09L401.2,116a26.6,26.6,0,0,0-2.7,3.74l-2.89-.43-1.88,4.14,2.23,1.9a26.5,26.5,0,0,0-1,4.48l-2.86.71-.14,4.54,2.79.9a27.24,27.24,0,0,0,.73,4.56l-2.36,1.74,1.6,4.25,2.92-.22a28.25,28.25,0,0,0,2.43,3.92l-1.51,2.5,3.11,3.32,2.6-1.33a27.35,27.35,0,0,0,3.74,2.69l-.43,2.89,4.14,1.89,1.9-2.22a28.94,28.94,0,0,0,4.49,1l.71,2.84,4.54.17.91-2.8a26.86,26.86,0,0,0,4.54-.74l1.74,2.35,4.26-1.59-.23-2.92a26.69,26.69,0,0,0,3.91-2.43Zm-23.62-19.13a6.47,6.47,0,1,1,9.14.32A6.46,6.46,0,0,1,417.34,138.29Z" style="fill:#ebebeb"></path><path d="M320,292.34l-10.34-7.15v0a56.25,56.25,0,0,0-4.16-10.77l2.65-10.4-15-16.06-10.56,1.93A56.3,56.3,0,0,0,272.12,245h0l-6.42-10.81-22-.75-7.14,10.34h0a56.53,56.53,0,0,0-10.76,4.15l-10.4-2.65-16.06,15,1.93,10.54h0a56.23,56.23,0,0,0-4.88,10.49l-10.81,6.42-.75,22,10.35,7.14a54.75,54.75,0,0,0,4.15,10.82h0L196.65,338l15,16.06,10.49-1.92a57.19,57.19,0,0,0,10.54,4.9h0l6.41,10.79,22,.76,7.13-10.34a57.08,57.08,0,0,0,10.86-4.16h0l10.34,2.64,16.07-15-1.93-10.54a55.4,55.4,0,0,0,4.88-10.5h0l10.81-6.42Zm-68.45,33.39a24.71,24.71,0,1,1,25.54-23.86A24.74,24.74,0,0,1,251.54,325.73Z" style="fill:#ebebeb"></path><path d="M343.55,230h-.07l-17.32-.59a2.08,2.08,0,0,1-1.74-1l-4.67-7.85a47.84,47.84,0,0,1-7.28-3.38L305,218.47a2.1,2.1,0,0,1-1.92-.64l-11.83-12.66a2.1,2.1,0,0,1-.5-2l1.89-7.41a45.45,45.45,0,0,1-2.86-7.47l-7.53-5.2a2.1,2.1,0,0,1-.91-1.81l.59-17.32a2.14,2.14,0,0,1,1-1.74l7.87-4.67a45.32,45.32,0,0,1,3.37-7.25l-1.38-7.53a2.11,2.11,0,0,1,.64-1.93l12.66-11.82a2.11,2.11,0,0,1,2-.51l7.44,1.9a45.83,45.83,0,0,1,7.45-2.87l5.2-7.53a2,2,0,0,1,1.81-.91l17.31.6a2.11,2.11,0,0,1,1.75,1l4.67,7.86a46.41,46.41,0,0,1,7.22,3.38l7.56-1.39a2.09,2.09,0,0,1,1.92.64l11.83,12.66a2.12,2.12,0,0,1,.5,2l-1.9,7.43a46.59,46.59,0,0,1,2.88,7.45l7.52,5.2a2.1,2.1,0,0,1,.91,1.81l-.59,17.31a2.16,2.16,0,0,1-1,1.75l-7.87,4.67a46.51,46.51,0,0,1-3.37,7.24l1.38,7.54a2.09,2.09,0,0,1-.64,1.92L367.33,220a2.1,2.1,0,0,1-2,.5l-7.4-1.89a47.49,47.49,0,0,1-7.49,2.87L345.29,229A2.13,2.13,0,0,1,343.55,230Zm-16.09-4.77,15,.51,5-7.19a2,2,0,0,1,1.19-.84,43.84,43.84,0,0,0,8.15-3.13h0a2.16,2.16,0,0,1,1.46-.15l7,1.79,11-10.25L375,198.74a2.09,2.09,0,0,1,.26-1.47,41.58,41.58,0,0,0,3.65-7.83,2.13,2.13,0,0,1,.94-1.18l7.53-4.46.51-15-7.2-5a2.11,2.11,0,0,1-.81-1.07c0-.05,0-.11,0-.17a43,43,0,0,0-3.12-8,2.11,2.11,0,0,1-.16-1.48l1.8-7.08-10.25-11-7.19,1.32a2.13,2.13,0,0,1-1.46-.26,42.3,42.3,0,0,0-7.84-3.67,2.28,2.28,0,0,1-.45-.2,2.1,2.1,0,0,1-.7-.72L346,123.92l-15-.52-5,7.21a2.16,2.16,0,0,1-1.24.85,42.63,42.63,0,0,0-8.06,3.11,2.08,2.08,0,0,1-1.47.16l-7.08-1.8-11,10.25,1.32,7.17a2.18,2.18,0,0,1-.19,1.33l-.1.17a41.56,41.56,0,0,0-3.65,7.86,2.12,2.12,0,0,1-.92,1.12l-7.53,4.47-.51,15,7.21,5a2.1,2.1,0,0,1,.84,1.18,41.52,41.52,0,0,0,3.11,8.12,2.54,2.54,0,0,1,.17.46,2.24,2.24,0,0,1,0,1l-1.8,7,10.25,11,7.14-1.31a2.1,2.1,0,0,1,1.45.26,43.26,43.26,0,0,0,7.89,3.67,2,2,0,0,1,1.17.93Zm24.78-94.81h0Zm-15.51,75.84c-.37,0-.74,0-1.11,0a31.53,31.53,0,1,1,1.11,0Zm0-59.09a27.55,27.55,0,1,0,.95,0Z" style="fill:#ebebeb"></path><polygon points="383.44 105.32 376.26 103.4 374.34 96.22 377.15 93.42 380.11 99.55 386.25 102.52 383.44 105.32" style="fill:#e0e0e0"></polygon><path d="M383.88,100.52a3.34,3.34,0,1,0-4.73-4.73l3.57-5.36,4.78,2.42,1.05,5Z" style="fill:#e0e0e0"></path><path d="M376.58,94l5.26-5.26L389,90.65l1.93,7.17-5.26,5.26-7.17-1.93Zm9.55,4.3a3.35,3.35,0,1,0-4.74,0A3.37,3.37,0,0,0,386.13,98.28Z" style="fill:#f0f0f0"></path><polygon points="90.22 296.71 94.07 295.67 95.1 291.82 93.6 290.32 92.01 293.61 88.71 295.2 90.22 296.71" style="fill:#e0e0e0"></polygon><path d="M90,294.13a1.8,1.8,0,0,1,2.54-2.54l-1.91-2.87L88,290l-.56,2.7Z" style="fill:#e0e0e0"></path><path d="M93.9,290.62l-2.82-2.82-3.85,1-1,3.85L89,295.5l3.85-1Zm-5.12,2.31a1.8,1.8,0,1,1,2.54-2.54,1.8,1.8,0,0,1-2.54,2.54Z" style="fill:#f0f0f0"></path><path d="M76.36,85.66l3.2,3.2a2.14,2.14,0,0,0,3,0h0a2.15,2.15,0,0,0,0-3l-3.19-3.19a2.15,2.15,0,0,0-3,0h0A2.14,2.14,0,0,0,76.36,85.66Z" style="fill:#f0f0f0"></path><path d="M74.11,77.71a4.45,4.45,0,1,1-3,5.78A4.59,4.59,0,0,1,74.11,77.71Z" style="fill:#e0e0e0"></path><rect x="74.93" y="76.84" width="1.37" height="10.1" transform="translate(24.11 180.74) rotate(-109.76)" style="fill:#f0f0f0"></rect></g><g id="freepik--Shadow--inject-3"><ellipse id="freepik--path--inject-3" cx="250" cy="416.24" rx="193.89" ry="11.32" style="fill:#f5f5f5"></ellipse></g><g id="freepik--oops--inject-3"><path d="M86.72,120.65c-1-4.41-.56-8.11,1.34-11.13s5-5,9.41-6,8.22-.6,11.2,1.26,5,5,6,9.3a17.15,17.15,0,0,1,.17,8.12,11.64,11.64,0,0,1-3.53,5.76,15.53,15.53,0,0,1-7.12,3.38,17.65,17.65,0,0,1-7.88.27,11.72,11.72,0,0,1-5.9-3.5A15.67,15.67,0,0,1,86.72,120.65Zm8.34-1.86q.93,4.08,2.85,5.52a5.89,5.89,0,0,0,8.3-1.84c.72-1.39.73-3.6.05-6.61q-.87-3.81-2.81-5.22a5.36,5.36,0,0,0-4.56-.81,5.2,5.2,0,0,0-3.65,2.7C94.5,114,94.43,116,95.06,118.79Z" style="fill:#263238"></path><path d="M118.59,117.35a10,10,0,0,1,1.35-8.06,11.56,11.56,0,0,1,7.49-4.75q5.87-1.33,9.64,1.39a10.9,10.9,0,0,1,2.64,14.27q-2.34,3.57-7.62,4.76a11.83,11.83,0,0,1-8.16-.66A9.85,9.85,0,0,1,118.59,117.35Zm7.51-1.73a6.08,6.08,0,0,0,1.93,3.63,3.58,3.58,0,0,0,5.33-1.19,6.33,6.33,0,0,0,.14-4.2,6,6,0,0,0-1.91-3.54,3.33,3.33,0,0,0-2.88-.65,3.49,3.49,0,0,0-2.42,1.87A6,6,0,0,0,126.1,115.62Z" style="fill:#263238"></path><path d="M148.58,128.57l-6.13-27,7-1.6.66,2.89a9.5,9.5,0,0,1,2.11-3.07,7.85,7.85,0,0,1,3.43-1.69,7.21,7.21,0,0,1,6.74,1.62,12.81,12.81,0,0,1,3.83,6.93c.74,3.25.52,5.91-.64,8a7.87,7.87,0,0,1-5.33,3.91,8.57,8.57,0,0,1-3.29.13,7.76,7.76,0,0,1-2.94-1.17l2.12,9.33Zm3.61-18.86a5.29,5.29,0,0,0,1.76,3.22,3.19,3.19,0,0,0,2.72.56,2.82,2.82,0,0,0,2-1.57,6,6,0,0,0,0-3.86,5.61,5.61,0,0,0-1.71-3.28,2.91,2.91,0,0,0-2.5-.6,3.12,3.12,0,0,0-2.14,1.67A5.72,5.72,0,0,0,152.19,109.71Z" style="fill:#263238"></path><path d="M169.43,110.3l7.28-2.39a3.75,3.75,0,0,0,1.72,1.6,4.69,4.69,0,0,0,4.53-1.1,1.49,1.49,0,0,0,.37-1.34A1.39,1.39,0,0,0,182.2,106a15.58,15.58,0,0,0-3.4,0,33.63,33.63,0,0,1-5.7,0,5.88,5.88,0,0,1-3-1.37,5.51,5.51,0,0,1-1.39-6.49,6.75,6.75,0,0,1,2.61-2.79,16.78,16.78,0,0,1,5.13-1.89,18.48,18.48,0,0,1,5.28-.64,6.91,6.91,0,0,1,3.16,1,8.86,8.86,0,0,1,2.54,2.62l-7,2.31a2.51,2.51,0,0,0-1.23-1.17,3.85,3.85,0,0,0-2.27-.1,3.08,3.08,0,0,0-1.75.87,1.35,1.35,0,0,0-.33,1.22,1.2,1.2,0,0,0,1,.92,12.36,12.36,0,0,0,3.36-.07,22.42,22.42,0,0,1,5.82-.08,6.29,6.29,0,0,1,3.28,1.51,5.46,5.46,0,0,1,1.66,2.85,6.18,6.18,0,0,1-.27,3.53,7.08,7.08,0,0,1-2.64,3.27,15.76,15.76,0,0,1-5.78,2.31q-5.35,1.22-8,.21A7.07,7.07,0,0,1,169.43,110.3Z" style="fill:#263238"></path><path d="M193.85,85.57l8.21,0,0,6.3-1.51,12.67-5.08,0-1.62-12.65Zm.4,20.88,7.66,0,0,6.78-7.66,0Z" style="fill:#263238"></path></g><g id="freepik--Character--inject-3"><path d="M222.45,304.84c1.39-22.4-1.16-63.13,40.95-57.73,45.13,5.77,32.22,58.55,32.22,58.55Z" style="fill:#263238"></path><circle cx="251.51" cy="273" r="18.38" style="fill:#fff"></circle><path d="M253.93,254.65c-8.71-1.48-18,4.93-18.93,11.43l34.51,3.18C268.29,261.85,260.83,255.83,253.93,254.65Z" style="fill:#263238"></path><path d="M265.58,272.54c-.25,4.81-2.87,8.58-5.85,8.42s-5.2-4.17-5-9,2.87-8.58,5.85-8.42S265.82,267.74,265.58,272.54Z" style="fill:#263238"></path><path d="M251.51,292.38A19.38,19.38,0,1,1,270.89,273,19.4,19.4,0,0,1,251.51,292.38Zm0-36.75A17.38,17.38,0,1,0,268.89,273,17.39,17.39,0,0,0,251.51,255.63Z" style="fill:#C53F3F"></path><path d="M290.49,304.28l-.12,0a.49.49,0,0,1-.37-.6c0-.13,3.22-13.69-.09-27.4a.5.5,0,1,1,1-.24c3.37,14,.12,27.74.09,27.87A.5.5,0,0,1,290.49,304.28Z" style="fill:#fff;opacity:0.30000000000000004"></path><path d="M287.7,268.76a.52.52,0,0,1-.46-.29,34.93,34.93,0,0,0-4.74-7.66.5.5,0,0,1,.07-.7.5.5,0,0,1,.71.07,36.47,36.47,0,0,1,4.87,7.87.49.49,0,0,1-.24.66A.54.54,0,0,1,287.7,268.76Z" style="fill:#fff;opacity:0.30000000000000004"></path><path d="M128.73,409.92h-.37a5,5,0,1,1,.28-10h.09c2.89,0,9.84-3.51,24.38-26.43a5,5,0,0,1,7.51-1.09,207.46,207.46,0,0,0,37.14,25.48,5,5,0,1,1-4.52,8.91,212.75,212.75,0,0,1-34.8-23.14C146.25,402,137.21,409.92,128.73,409.92Z" style="fill:#263238"></path><path d="M159.67,371.5l-.43,0a3,3,0,0,1-2.54-3.39c.71-5-.17-23.63-6.48-38.13a3,3,0,0,1,1.06-3.68c13.7-9.33,42.88-10.45,44.12-10.49a3,3,0,1,1,.2,6c-.27,0-25.78,1-38.88,8.2,5.58,14.44,6.85,32.43,5.92,38.94A3,3,0,0,1,159.67,371.5Z" style="fill:#263238"></path><path d="M164.71,367.62c-2-4.71-11-4.18-16.27-.14-2.82,2.15-6.64,8.64-7,11a3.54,3.54,0,0,0,4,4.24c3.45-.3,8.18-5.31,8.18-5.31-3.15,3.09.92,5.27,7,.8C163.94,375.72,166.94,372.89,164.71,367.62Z" style="fill:#C53F3F"></path><path d="M336.71,306.16a.32.32,0,0,1-.14,0,.49.49,0,0,1-.34-.62c1.33-4.64,2.78-7.47,4.69-9a5.18,5.18,0,0,1,.16-3.26,6.45,6.45,0,0,1,2.36-3,2.54,2.54,0,0,1-.59-2.38,6.18,6.18,0,0,1,2.14-3.16,2.24,2.24,0,0,1-.57-1.51c0-3,5.51-7.52,11.76-8.38a.5.5,0,0,1,.14,1c-5.94.81-10.92,5.11-10.9,7.38a1.31,1.31,0,0,0,.36.91,12.24,12.24,0,0,1,9.28-1.87c3.07.59,4.32,1.24,4.18,2.17-.28,1.75-6.81,2.12-11.19,1.6a6.18,6.18,0,0,1-2.25-.65,5.38,5.38,0,0,0-2,2.73,1.57,1.57,0,0,0,.49,1.64c1.86-1,4.47-1.36,7.92-.6,4.53,1,4.7,1.55,4.81,1.88a.67.67,0,0,1-.17.67c-.95,1-7.9.53-11.39-.33a4.91,4.91,0,0,1-1.21-.45,5.45,5.45,0,0,0-2.26,2.71,4.23,4.23,0,0,0-.23,2.3,5.77,5.77,0,0,1,.55-.29c2.07-1,4.57-.82,7.66.5,2,.87,3,1.65,3.1,2.44a1.12,1.12,0,0,1-.57,1c-1.53,1-6.87.86-9.65-.62a4,4,0,0,1-1.54-1.49c-1.63,1.5-2.95,4.17-4.15,8.36A.51.51,0,0,1,336.71,306.16Zm5.42-9.33a3,3,0,0,0,1.22,1.22c2.26,1.2,6.7,1.47,8.36.8.34-.14.39-.25.39-.25s-.05-.56-2.5-1.61c-2.8-1.2-5-1.37-6.83-.52A5.79,5.79,0,0,0,342.13,296.83Zm3.34-6.57.25.07a33.09,33.09,0,0,0,9.94.75,21.7,21.7,0,0,0-3.64-1A11.38,11.38,0,0,0,345.47,290.26Zm1.26-5.62a5.92,5.92,0,0,0,1.43.32c5,.59,9.39-.1,10-.73-.17-.15-.84-.58-3.32-1.05A11.25,11.25,0,0,0,346.73,284.64Z" style="fill:#263238"></path><path d="M206.53,408.25c.66-.21.44-.85-.3-.85H192.69c-25.78-2.73-43.79.93-32.44,1.79s-.8.68-9.09,3.82,61.65,3.93,68,0C225,409.39,197.39,411.18,206.53,408.25Z" style="fill:#263238"></path><polygon points="303.47 412.24 185.67 408.33 180.78 294.11 319.89 297.22 303.47 412.24" style="fill:#C53F3F"></polygon><path d="M222.45,410.05a.5.5,0,0,1-.5-.46l-9.44-114.72a.51.51,0,0,1,.46-.54.52.52,0,0,1,.54.46L223,409.51a.5.5,0,0,1-.46.54Z" style="fill:#263238"></path><polygon points="303.47 412.24 335.13 407.42 345.1 301.21 319.89 297.22 303.47 412.24" style="fill:#C53F3F"></polygon><polygon points="303.47 412.24 335.13 407.42 345.1 301.21 319.89 297.22 303.47 412.24" style="opacity:0.2"></polygon><path d="M195.73,386.32l-2.9-67.87a12.27,12.27,0,0,1,12.53-12.79l88.06,2a12.27,12.27,0,0,1,11.87,14L295.53,390A12.27,12.27,0,0,1,283,400.55l-75.39-2.5A12.27,12.27,0,0,1,195.73,386.32Z" style="fill:#263238"></path><path d="M205.25,326.49l13.62.43-.11,3.51-8.53-.27-.08,2.62,7.91.25-.11,3.36-7.91-.26-.1,3.25,8.77.28-.12,3.72-13.87-.44Z" style="fill:#fff"></path><path d="M221.4,343.47l.52-16.45,8.48.27a12.22,12.22,0,0,1,3.59.52,3.81,3.81,0,0,1,2,1.56,4.64,4.64,0,0,1-1.64,6.59,6.16,6.16,0,0,1-1.81.6,5.12,5.12,0,0,1,1.31.64,5.51,5.51,0,0,1,.78.9,6.43,6.43,0,0,1,.68,1l2.31,4.85-5.74-.19-2.56-5.11a3.94,3.94,0,0,0-.88-1.3,2.22,2.22,0,0,0-1.23-.42h-.45l-.21,6.67Zm5.42-9.62,2.14.07a8.63,8.63,0,0,0,1.35-.19,1.35,1.35,0,0,0,.85-.49,1.57,1.57,0,0,0,.35-.94,1.54,1.54,0,0,0-.47-1.24,3.1,3.1,0,0,0-1.88-.49l-2.24-.07Z" style="fill:#fff"></path><path d="M239.28,344l.52-16.45,8.47.27a12.16,12.16,0,0,1,3.59.52,3.77,3.77,0,0,1,2,1.56,4.45,4.45,0,0,1,.68,2.69,4.42,4.42,0,0,1-2.31,3.9,6.27,6.27,0,0,1-1.81.6,5,5,0,0,1,1.3.64,4.84,4.84,0,0,1,.79.89,6.87,6.87,0,0,1,.68,1l2.31,4.84-5.74-.18-2.56-5.11a4,4,0,0,0-.88-1.3,2.08,2.08,0,0,0-1.24-.42l-.44,0-.22,6.68Zm5.41-9.62,2.15.06a7.21,7.21,0,0,0,1.35-.18,1.31,1.31,0,0,0,.84-.49,1.46,1.46,0,0,0,.35-.94,1.52,1.52,0,0,0-.46-1.24,3,3,0,0,0-1.89-.49l-2.23-.07Z" style="fill:#fff"></path><path d="M256.32,336.36a7.79,7.79,0,0,1,8.76-8.25,8.6,8.6,0,0,1,6.26,2.41,8.32,8.32,0,0,1,2,6.25,10.21,10.21,0,0,1-1.12,4.7,7,7,0,0,1-2.9,2.78,9.22,9.22,0,0,1-4.61.88,10.58,10.58,0,0,1-4.58-1,7,7,0,0,1-2.86-2.9A9.21,9.21,0,0,1,256.32,336.36Zm5.08.18a5.56,5.56,0,0,0,.81,3.61,3.52,3.52,0,0,0,5.06.19,6.13,6.13,0,0,0,1-3.8,5.17,5.17,0,0,0-.83-3.43A3.22,3.22,0,0,0,265,332a3.1,3.1,0,0,0-2.51,1A5.56,5.56,0,0,0,261.4,336.54Z" style="fill:#fff"></path><path d="M275.91,345.21l.52-16.46,8.47.27a12.51,12.51,0,0,1,3.59.52,3.87,3.87,0,0,1,2,1.56,4.49,4.49,0,0,1,.68,2.69,4.42,4.42,0,0,1-2.31,3.91,6.61,6.61,0,0,1-1.81.59,5,5,0,0,1,1.3.65,4.84,4.84,0,0,1,.79.89,6.43,6.43,0,0,1,.68,1l2.31,4.85-5.74-.18-2.56-5.12a3.91,3.91,0,0,0-.88-1.29,2.16,2.16,0,0,0-1.24-.43h-.44l-.22,6.68Zm5.41-9.63,2.15.07a7.21,7.21,0,0,0,1.35-.18,1.35,1.35,0,0,0,.84-.49,1.48,1.48,0,0,0,.35-1,1.5,1.5,0,0,0-.46-1.23,3,3,0,0,0-1.89-.49l-2.23-.07Z" style="fill:#fff"></path><path d="M284,373.16a1.32,1.32,0,0,1-1-.43l-8.56-9.37-9.24,8.44a1.31,1.31,0,0,1-1.85-.08l-8.56-9.37-9.24,8.44a1.31,1.31,0,0,1-1.85-.08l-8.57-9.37-9.23,8.44a1.33,1.33,0,0,1-1,.34,1.35,1.35,0,0,1-.91-.43l-8.56-9.36-9.23,8.43a1.32,1.32,0,0,1-1.86-.08,1.3,1.3,0,0,1,.09-1.85l10.2-9.33a1.32,1.32,0,0,1,1.86.08l8.56,9.37,9.23-8.44a1.37,1.37,0,0,1,.95-.34,1.33,1.33,0,0,1,.91.43l8.56,9.37,9.24-8.44a1.3,1.3,0,0,1,1.85.08l8.56,9.37,9.24-8.44a1.31,1.31,0,0,1,1.85.08L285,371a1.32,1.32,0,0,1-1,2.2Z" style="fill:#fff"></path><polygon points="125.75 414.67 119.49 411.68 113.91 384.51 116.94 381.18 125.75 414.67" style="fill:#C53F3F"></polygon><polygon points="125.75 414.67 134.06 409.81 126.94 387.43 116.94 381.18 125.75 414.67" style="fill:#C53F3F"></polygon><polygon points="125.75 414.67 134.06 409.81 126.94 387.43 116.94 381.18 125.75 414.67" style="opacity:0.2"></polygon><path d="M262,419.61h-.69a5,5,0,0,1,.27-10c7.7.25,24-4.48,33.32-13.52a5,5,0,0,1,2-1.2c15.79-4.74,21.66,4.83,21.9,5.24l-8.6,5.09a1,1,0,0,0,.11.18c-.09-.13-2.33-3-9.45-1.24C289.17,414.82,271.23,419.61,262,419.61Z" style="fill:#263238"></path><polygon points="261.39 426.25 243.18 425.11 241.75 391.53 266.22 392.44 261.39 426.25" style="fill:#C53F3F"></polygon><polygon points="261.39 426.25 265.65 422.01 268.29 401.08 266.22 392.44 261.39 426.25" style="fill:#C53F3F"></polygon><polygon points="261.39 426.25 265.65 422.01 268.29 401.08 266.22 392.44 261.39 426.25" style="opacity:0.2"></polygon><path d="M366.91,413.54a3,3,0,0,1-1.81-.61c-10.4-7.9-24.45-21.93-29.84-35.46a2.64,2.64,0,0,1-.17-.61c-2.63-15.64-5.14-48.55-5.25-49.94a3,3,0,1,1,6-.45c0,.33,2.57,33.56,5.13,49.07,5.38,13.16,20,26.67,27.78,32.61a3,3,0,0,1-1.82,5.39Z" style="fill:#263238"></path><path d="M380.78,415.05c-2.32,0-4.95-1.05-7.82-3.12a3,3,0,0,1,3.52-4.86c2.48,1.79,3.83,2,4.3,2a3,3,0,0,1,0,6Z" style="fill:#263238"></path><path d="M373.8,411.84c3.21-9.53,16.37-7.65,20.91-6.23a47.77,47.77,0,0,1,11.07,4.8c2.45,1.6,2.49,4.29-.78,5.82-4,1.88-14.16.21-14.16.21,5.24,2.29,0,6-9.21,2.36C378.64,417.62,372.67,415.34,373.8,411.84Z" style="fill:#C53F3F"></path><path d="M341.86,331c-1.19,8.1-7.9,14.07-13.36,13.27s-5.68-8-4.49-16.14,3.35-14,8.81-13.2S343.05,322.93,341.86,331Z" style="fill:#263238"></path><circle cx="209.88" cy="297.88" r="0.82" style="fill:#263238"></circle><path d="M218.21,303.78a.82.82,0,1,1-.82-.82A.82.82,0,0,1,218.21,303.78Z" style="fill:#263238"></path><path d="M219.13,400.68a.82.82,0,1,1-.82-.82A.82.82,0,0,1,219.13,400.68Z" style="fill:#263238"></path><path d="M226.64,406.59a.82.82,0,1,1-.82-.82A.82.82,0,0,1,226.64,406.59Z" style="fill:#263238"></path></g><g id="freepik--robot-parts--inject-3"><path d="M82.51,416.42a9.62,9.62,0,0,1-7.33-3.95.5.5,0,1,1,.82-.57c1.87,2.7,6,4.13,7.8,3.28a1.3,1.3,0,0,0,.47-.34,6.05,6.05,0,0,1-3.52-4.48c-.23-1.27-.41-3,.63-3.22,1.44-.32,3.32,3.15,4,5.78a3.78,3.78,0,0,1,.13,1.34,4.26,4.26,0,0,0,1.78.14,1.94,1.94,0,0,0,1.38-.74,5.86,5.86,0,0,1-2.31-4.19c-.38-2.74-.09-3.21.21-3.45a.66.66,0,0,1,.69-.07c1.07.45,2.36,4.33,2.61,6.53a2.66,2.66,0,0,1,0,.69,3.91,3.91,0,0,0,1.35.26,4.29,4.29,0,0,0,2.41-.63c-.14-.09-.27-.19-.4-.29-1-.89-1.46-2.31-1.28-4.33.14-1.57.49-2.43,1.12-2.7a1.13,1.13,0,0,1,1.21.24,6.92,6.92,0,0,1,1.73,5.56,3,3,0,0,1-.51,1.15c1.84.32,4.42-.2,6.65-.75a.5.5,0,0,1,.24,1c-2.71.67-5.63,1.22-7.69.62a5.69,5.69,0,0,1-3.5,1.16,4.83,4.83,0,0,1-1.64-.31,2.8,2.8,0,0,1-2.12,1.27,5.33,5.33,0,0,1-2.24-.19,2.21,2.21,0,0,1-1,.89A4.16,4.16,0,0,1,82.51,416.42Zm-.86-8.28a4.32,4.32,0,0,0,.08,2.05,5.05,5.05,0,0,0,2.84,3.7,3.21,3.21,0,0,0-.12-.7C83.67,410.33,82.17,408.36,81.65,408.14Zm5.57-.87a14.19,14.19,0,0,0,.17,2.06,5.18,5.18,0,0,0,1.52,3.22A15.72,15.72,0,0,0,87.22,407.27Zm6.29-.87h0s-.38.19-.52,1.86.15,2.82.93,3.49a3.06,3.06,0,0,0,.6.38,2.24,2.24,0,0,0,.54-1,6.26,6.26,0,0,0-1.19-4.43C93.66,406.44,93.54,406.4,93.51,406.4Z" style="fill:#263238"></path><polygon points="228.87 423.98 231.58 419.28 228.87 414.58 225.97 414.58 227.61 419.28 225.97 423.98 228.87 423.98" style="fill:#263238"></polygon><path d="M226.16,421.73a2.45,2.45,0,1,1,0-4.89l-4.6-.92-1.23,3.72,2.06,3.14Z" style="fill:#263238"></path><path d="M226.56,414.58h-5.43l-2.71,4.7,2.71,4.7h5.43l2.71-4.7Zm-2.71,7.15a2.45,2.45,0,1,1,2.44-2.45A2.45,2.45,0,0,1,223.85,421.73Z" style="fill:#C53F3F"></path><polygon points="417.89 414.26 415.88 410.77 417.89 407.28 420.04 407.28 418.83 410.77 420.04 414.26 417.89 414.26" style="fill:#C53F3F"></polygon><path d="M419.9,412.59a1.82,1.82,0,1,0,0-3.63l3.42-.68.91,2.76-1.52,2.33Z" style="fill:#C53F3F"></path><path d="M419.61,407.28h4l2,3.49-2,3.49h-4l-2-3.49Zm2,5.31a1.82,1.82,0,1,0-1.81-1.82A1.81,1.81,0,0,0,421.62,412.59Z" style="fill:#263238"></path><path d="M343,418.9h4.52a2.14,2.14,0,0,0,2.13-2.14h0a2.14,2.14,0,0,0-2.13-2.14H343a2.14,2.14,0,0,0-2.14,2.14h0A2.14,2.14,0,0,0,343,418.9Z" style="fill:#263238"></path><path d="M335.73,414.86a4.46,4.46,0,1,1,2,6.18A4.61,4.61,0,0,1,335.73,414.86Z" style="fill:#C53F3F"></path><rect x="339.07" y="411.71" width="1.37" height="10.1" transform="translate(469.33 938.61) rotate(-154.76)" style="fill:#263238"></rect></g></svg>